<svg xmlns="http://www.w3.org/2000/svg" width="1em" height="1em" viewBox="0 0 20 19" fill="none">
<path d="M8.59 10.7939C9 11.1839 9 11.8239 8.59 12.2139C8.2 12.6039 7.56 12.6039 7.17 12.2139C5.22 10.2639 5.22 7.09388 7.17 5.14388L10.71 1.60387C12.66 -0.346125 15.83 -0.346125 17.78 1.60387C19.73 3.55387 19.73 6.72387 17.78 8.67387L16.29 10.1639C16.3 9.34387 16.17 8.52387 15.89 7.74387L16.36 7.26388C17.54 6.09388 17.54 4.19387 16.36 3.02387C15.19 1.84387 13.29 1.84387 12.12 3.02387L8.59 6.55387C7.41 7.72387 7.41 9.62387 8.59 10.7939ZM11.41 6.55387C11.8 6.16387 12.44 6.16387 12.83 6.55387C14.78 8.50388 14.78 11.6739 12.83 13.6239L9.29 17.1639C7.34 19.1139 4.17 19.1139 2.22 17.1639C0.27 15.2139 0.27 12.0439 2.22 10.0939L3.71 8.60388C3.7 9.42388 3.83 10.2439 4.11 11.0339L3.64 11.5039C2.46 12.6739 2.46 14.5739 3.64 15.7439C4.81 16.9239 6.71 16.9239 7.88 15.7439L11.41 12.2139C12.59 11.0439 12.59 9.14388 11.41 7.97388C11 7.58388 11 6.94387 11.41 6.55387Z" fill="currentColor"/>
</svg>